<svg xmlns="http://www.w3.org/2000/svg" width="1200" height="600" viewBox="0 0 1200 600" role="img" aria-label="Personas utilizando plataforma de quejas">
  <defs>
    <linearGradient id="bg" x1="0" y1="0" x2="1" y2="1">
      <stop offset="0%" stop-color="#0f3d99"/>
      <stop offset="100%" stop-color="#0aa880"/>
    </linearGradient>
    <linearGradient id="card" x1="0" y1="0" x2="0" y2="1">
      <stop offset="0%" stop-color="#ffffff" stop-opacity="0.95"/>
      <stop offset="100%" stop-color="#ffffff" stop-opacity="0.85"/>
    </linearGradient>
  </defs>

  <!-- fondo -->
  <rect width="1200" height="600" fill="url(#bg)"/>

  <!-- círculos decorativos -->
  <circle cx="1050" cy="80" r="70" fill="#ffffff" opacity="0.08"/>
  <circle cx="150" cy="520" r="90" fill="#ffffff" opacity="0.08"/>

  <!-- “pantalla” principal -->
  <rect x="650" y="110" rx="18" ry="18" width="450" height="340" fill="url(#card)"/>
  <rect x="670" y="140" width="410" height="22" rx="6" fill="#0f3d99" opacity="0.15"/>
  <rect x="670" y="190" width="240" height="18" rx="4" fill="#0f3d99" opacity="0.25"/>
  <rect x="670" y="220" width="360" height="14" rx="4" fill="#0f3d99" opacity="0.18"/>
  <rect x="670" y="260" width="360" height="90" rx="8" fill="#0f3d99" opacity="0.08"/>

  <!-- tarjetas mini -->
  <rect x="670" y="370" width="120" height="56" rx="10" fill="#0aa880" opacity="0.25"/>
  <rect x="806" y="370" width="120" height="56" rx="10" fill="#0f3d99" opacity="0.25"/>
  <rect x="942" y="370" width="120" height="56" rx="10" fill="#f59e0b" opacity="0.25"/>

  <!-- avatares simples -->
  <g transform="translate(120,170)">
    <circle cx="80" cy="60" r="30" fill="#fff" opacity="0.9"/>
    <rect x="50" y="95" width="60" height="70" rx="14" fill="#fff" opacity="0.9"/>
    <circle cx="200" cy="40" r="24" fill="#fff" opacity="0.9"/>
    <rect x="176" y="70" width="48" height="58" rx="12" fill="#fff" opacity="0.9"/>
    <circle cx="300" cy="85" r="26" fill="#fff" opacity="0.9"/>
    <rect x="274" y="118" width="52" height="62" rx="12" fill="#fff" opacity="0.9"/>
  </g>

  <!-- bocadillo tipo queja -->
  <g transform="translate(320,310)">
    <rect x="0" y="0" width="240" height="120" rx="16" fill="#ffffff" opacity="0.95"/>
    <path d="M60 120 L100 120 L80 145 Z" fill="#ffffff" opacity="0.95"/>
    <rect x="20" y="20" width="140" height="16" rx="4" fill="#0f3d99" opacity="0.3"/>
    <rect x="20" y="46" width="200" height="12" rx="4" fill="#0f3d99" opacity="0.18"/>
    <rect x="20" y="66" width="180" height="12" rx="4" fill="#0f3d99" opacity="0.18"/>
  </g>
</svg>
